<?xml version="1.0" standalone="no"?>
<!DOCTYPE svg PUBLIC "-//W3C//DTD SVG 20010904//EN"
 "http://www.w3.org/TR/2001/REC-SVG-20010904/DTD/svg10.dtd">
<svg version="1.0" xmlns="http://www.w3.org/2000/svg"
 width="260.000000pt" height="260.000000pt" viewBox="0 0 260.000000 260.000000"
 preserveAspectRatio="xMidYMid meet">
<metadata>
Created by potrace 1.11, written by Peter Selinger 2001-2013
</metadata>
<g transform="translate(0.000000,260.000000) scale(0.100000,-0.100000)"
fill="#000000" stroke="none">
<path d="M40 2305 l0 -275 490 0 490 0 0 -220 0 -220 -490 0 -490 0 0 -275 0
-275 490 0 490 0 0 -230 0 -230 -490 0 -490 0 0 -275 0 -275 1258 2 1257 3 3
273 2 272 -495 0 -495 0 0 230 0 230 493 2 492 3 3 273 2 272 -495 0 -495 0 0
220 0 220 495 0 495 0 -2 273 -3 272 -1257 3 -1258 2 0 -275z"/>
</g>
</svg>
