<?xml version="1.0" encoding="UTF-8"?>
<svg width="218px" height="218px" viewBox="0 0 218 218" version="1.1" xmlns="http://www.w3.org/2000/svg" xmlns:xlink="http://www.w3.org/1999/xlink">
    <!-- Generator: Sketch 64 (93537) - https://sketch.com -->
    <title>Group 4</title>
    <desc>Created with Sketch.</desc>
    <g id="Page-1" stroke="none" stroke-width="1" fill="none" fill-rule="evenodd">
        <g id="Artboard-1" transform="translate(-450.000000, -189.000000)">
            <g id="Group-4" transform="translate(451.000000, 190.000000)">
                <g id="Group-2">
                    <g id="Group">
                        <path d="M108,-1.42108547e-14 C167.6469,-1.42108547e-14 216,48.3534 216,108 C216,167.6466 167.6469,216 108,216 C48.3534,216 0,167.6466 0,108 C0,48.3534 48.3534,-1.42108547e-14 108,-1.42108547e-14 Z" id="Fill-7" fill="#FEFEFE"></path>
                        <path d="M108,-1.42108547e-14 C167.6469,-1.42108547e-14 216,48.3534 216,108 C216,167.6466 167.6469,216 108,216 C48.3534,216 0,167.6466 0,108 C0,48.3534 48.3534,-1.42108547e-14 108,-1.42108547e-14 Z" id="Stroke-8" stroke="#4E4E4D" stroke-width="0.5669"></path>
                        <polygon id="Fill-9" fill="#E5D16A" points="92.8267 66.4104 104.6994 66.4104 111.3052 66.4104 123.1784 66.4104 123.1784 73.0165 111.3052 73.0165 111.3052 78.3165 123.1784 78.3165 123.1784 84.9226 111.3052 84.9226 111.3052 90.4516 123.1784 90.4516 123.1784 97.0574 92.8267 97.0574 92.8267 90.4516 104.6994 90.4516 104.6994 84.9226 92.8267 84.9226 92.8267 78.3165 104.6994 78.3165 104.6994 73.0165 92.8267 73.0165"></polygon>
                        <path d="M22.0567,129.3219 C22.5493,130.2109 23.3,130.9071 24.3077,131.4099 C25.3157,131.9131 26.4356,132.1645 27.6673,132.1645 C29.325,132.1645 30.6579,131.6965 31.6656,130.7608 C32.6736,129.8248 33.1776,128.5498 33.1776,126.9355 C33.1776,125.602 32.7688,124.5841 31.9513,123.8823 C31.1338,123.1804 29.8514,122.5253 28.1044,121.917 C25.6629,121.0748 23.8264,120.098 22.5941,118.9868 C21.3625,117.8754 20.7465,116.3957 20.7465,114.5472 C20.7465,112.4884 21.4464,110.8332 22.8464,109.5815 C24.2462,108.3297 26.066,107.7041 28.3059,107.7041 C29.672,107.7041 30.96,107.9788 32.1696,108.5287 C33.3791,109.0786 34.3871,109.95 35.1936,111.1431 L33.2113,112.3013 C32.1806,110.7573 30.5456,109.9851 28.3059,109.9851 C26.7605,109.9851 25.5116,110.3888 24.56,111.1958 C23.6078,112.0031 23.1319,113.0967 23.1319,114.4772 C23.1319,115.7638 23.6021,116.8166 24.543,117.6355 C25.4835,118.4545 26.9396,119.1799 28.9106,119.8114 C31.1505,120.5601 32.8193,121.4433 33.9168,122.461 C35.0141,123.4789 35.5629,124.9469 35.5629,126.8654 C35.5629,129.2049 34.835,131.0474 33.3791,132.3927 C31.9232,133.738 29.9968,134.4104 27.6004,134.4104 C24.2856,134.4104 21.7656,133.1121 20.041,130.515 L22.0567,129.3219 Z M50.5814,134.4104 C48.8121,134.4104 47.1544,134.0595 45.6089,133.3576 C44.0635,132.6558 42.7139,131.7025 41.5605,130.4975 C40.4068,129.2927 39.494,127.8831 38.8222,126.2687 C38.1504,124.6544 37.8142,122.923 37.8142,121.0748 C37.8142,119.2266 38.1504,117.4893 38.8222,115.8633 C39.494,114.2374 40.4068,112.8218 41.5605,111.617 C42.7139,110.412 44.0635,109.4587 45.6089,108.7569 C47.1544,108.055 48.8121,107.7041 50.5814,107.7041 C52.6196,107.7041 54.5012,108.1602 56.2258,109.0726 C57.9504,109.9851 59.3952,111.2134 60.56,112.7574 L58.5442,113.9859 C57.6034,112.7693 56.4443,111.7982 55.0667,111.0731 C53.6891,110.3477 52.1941,109.9851 50.5814,109.9851 C49.148,109.9851 47.7984,110.2777 46.533,110.8624 C45.2673,111.4472 44.1644,112.2429 43.2236,113.2489 C42.2827,114.2549 41.5378,115.4305 40.9893,116.7758 C40.4405,118.1211 40.1661,119.554 40.1661,121.0748 C40.1661,122.5956 40.4405,124.0285 40.9893,125.3738 C41.5378,126.7192 42.2827,127.889 43.2236,128.8831 C44.1644,129.8775 45.2673,130.6673 46.533,131.2521 C47.7984,131.8368 49.148,132.1294 50.5814,132.1294 C52.1941,132.1294 53.6891,131.7728 55.0667,131.059 C56.4443,130.3455 57.6034,129.3803 58.5442,128.1637 L60.56,129.392 C59.3952,130.9363 57.9504,132.1586 56.2258,133.0594 C54.5012,133.9603 52.6196,134.4104 50.5814,134.4104 Z M71.6137,134.4456 C69.2173,134.4456 67.1899,133.5974 65.5325,131.9012 C63.8751,130.2052 63.0462,128.0702 63.0462,125.4966 L63.0462,108.2305 L65.3981,108.2305 L65.3981,125.4966 C65.3981,127.4151 65.9974,129.0062 67.1959,130.2696 C68.3938,131.533 69.8667,132.1645 71.6137,132.1645 C73.3162,132.1645 74.772,131.533 75.9813,130.2696 C77.1908,129.0062 77.7957,127.4151 77.7957,125.4966 L77.7957,108.2305 L80.1476,108.2305 L80.1476,125.4966 C80.1476,126.7835 79.9237,127.9707 79.4756,129.0586 C79.0277,130.1465 78.4174,131.0882 77.6447,131.8839 C76.8716,132.6793 75.9702,133.3052 74.9401,133.7613 C73.9097,134.2177 72.8008,134.4456 71.6137,134.4456 Z M95.838,131.7084 L95.838,133.9543 L84.3475,133.9543 L84.3475,108.2305 L86.7328,108.2305 L86.7328,131.7084 L95.838,131.7084 Z M100.8771,121.7415 L100.8771,133.9543 L98.5255,133.9543 L98.5255,108.2305 L106.4546,108.2305 C108.2687,108.2305 109.8085,108.8856 111.0742,110.1957 C112.3396,111.5059 112.9726,113.0967 112.9726,114.9684 C112.9726,116.8634 112.3396,118.4661 111.0742,119.7763 C109.8085,121.0864 108.2687,121.7415 106.4546,121.7415 L100.8771,121.7415 Z M106.2193,119.636 C107.4288,119.636 108.4592,119.1799 109.3102,118.2674 C110.1614,117.3549 110.5872,116.2554 110.5872,114.9684 C110.5872,113.705 110.1671,112.6287 109.3272,111.7398 C108.4873,110.8508 107.4626,110.4064 106.253,110.4064 L100.8771,110.4064 L100.8771,119.636 L106.2193,119.636 Z M114.0812,110.4764 L114.0812,108.2305 L130.1409,108.2305 L130.1409,110.4764 L123.287,110.4764 L123.287,133.9543 L120.9351,133.9543 L120.9351,110.4764 L114.0812,110.4764 Z M154.7011,131.7084 L154.7011,133.9543 L143.2106,133.9543 L143.2106,108.2305 L145.5959,108.2305 L145.5959,131.7084 L154.7011,131.7084 Z M156.1122,133.9543 L166.2588,108.2305 L168.5435,108.2305 L178.6901,133.9543 L176.271,133.9543 L173.1802,126.0933 L161.6222,126.0933 L158.5313,133.9543 L156.1122,133.9543 Z M167.4009,111.2837 L162.4286,123.9174 L172.34,123.9174 L167.4009,111.2837 Z M194.8839,114.5123 C194.8839,115.7757 194.6095,116.9161 194.0607,117.9338 C193.5119,118.9517 192.7673,119.753 191.8264,120.3378 C193.0808,120.8526 194.0834,121.7123 194.8337,122.9173 C195.5841,124.1221 195.9591,125.485 195.9591,127.0058 C195.9591,128.9475 195.3377,130.591 194.0944,131.9363 C192.8512,133.2817 191.1657,133.9543 189.038,133.9543 L180.5712,133.9543 L180.5712,108.2305 L188.3325,108.2305 C190.3706,108.2305 191.9722,108.8328 193.1369,110.0378 C194.3017,111.2426 194.8839,112.7342 194.8839,114.5123 Z M193.54,126.7951 C193.54,125.3914 193.1145,124.1864 192.2636,123.1804 C191.412,122.1744 190.2362,121.6715 188.7356,121.6715 L182.9231,121.6715 L182.9231,131.7784 L188.8027,131.7784 C190.2362,131.7784 191.3842,131.3048 192.2465,130.3572 C193.1088,129.4095 193.54,128.2224 193.54,126.7951 Z M192.4985,114.8981 C192.4985,113.5647 192.0955,112.4827 191.289,111.6522 C190.4825,110.8216 189.4187,110.4064 188.0972,110.4064 L182.9231,110.4064 L182.9231,119.5657 L188.1644,119.5657 C189.5083,119.5657 190.5667,119.1212 191.3395,118.2322 C192.1122,117.343 192.4985,116.2318 192.4985,114.8981 Z" id="Stroke-11" stroke="#000000" stroke-width="0.216"></path>
                    </g>
                    <path d="M22.0567,129.3219 C22.5493,130.2109 23.3,130.9071 24.3077,131.4099 C25.3157,131.9131 26.4356,132.1645 27.6673,132.1645 C29.325,132.1645 30.6579,131.6965 31.6656,130.7608 C32.6736,129.8248 33.1776,128.5498 33.1776,126.9355 C33.1776,125.602 32.7688,124.5841 31.9513,123.8823 C31.1338,123.1804 29.8514,122.5253 28.1044,121.917 C25.6629,121.0748 23.8264,120.098 22.5941,118.9868 C21.3625,117.8754 20.7465,116.3957 20.7465,114.5472 C20.7465,112.4884 21.4464,110.8332 22.8464,109.5815 C24.2462,108.3297 26.066,107.7041 28.3059,107.7041 C29.672,107.7041 30.96,107.9788 32.1696,108.5287 C33.3791,109.0786 34.3871,109.95 35.1936,111.1431 L33.2113,112.3013 C32.1806,110.7573 30.5456,109.9851 28.3059,109.9851 C26.7605,109.9851 25.5116,110.3888 24.56,111.1958 C23.6078,112.0031 23.1319,113.0967 23.1319,114.4772 C23.1319,115.7638 23.6021,116.8166 24.543,117.6355 C25.4835,118.4545 26.9396,119.1799 28.9106,119.8114 C31.1505,120.5601 32.8193,121.4433 33.9168,122.461 C35.0141,123.4789 35.5629,124.9469 35.5629,126.8654 C35.5629,129.2049 34.835,131.0474 33.3791,132.3927 C31.9232,133.738 29.9968,134.4104 27.6004,134.4104 C24.2856,134.4104 21.7656,133.1121 20.041,130.515 L22.0567,129.3219 Z M50.5814,134.4104 C48.8121,134.4104 47.1544,134.0595 45.6089,133.3576 C44.0635,132.6558 42.7139,131.7025 41.5605,130.4975 C40.4068,129.2927 39.494,127.8831 38.8222,126.2687 C38.1504,124.6544 37.8142,122.923 37.8142,121.0748 C37.8142,119.2266 38.1504,117.4893 38.8222,115.8633 C39.494,114.2374 40.4068,112.8218 41.5605,111.617 C42.7139,110.412 44.0635,109.4587 45.6089,108.7569 C47.1544,108.055 48.8121,107.7041 50.5814,107.7041 C52.6196,107.7041 54.5012,108.1602 56.2258,109.0726 C57.9504,109.9851 59.3952,111.2134 60.56,112.7574 L58.5442,113.9859 C57.6034,112.7693 56.4443,111.7982 55.0667,111.0731 C53.6891,110.3477 52.1941,109.9851 50.5814,109.9851 C49.148,109.9851 47.7984,110.2777 46.533,110.8624 C45.2673,111.4472 44.1644,112.2429 43.2236,113.2489 C42.2827,114.2549 41.5378,115.4305 40.9893,116.7758 C40.4405,118.1211 40.1661,119.554 40.1661,121.0748 C40.1661,122.5956 40.4405,124.0285 40.9893,125.3738 C41.5378,126.7192 42.2827,127.889 43.2236,128.8831 C44.1644,129.8775 45.2673,130.6673 46.533,131.2521 C47.7984,131.8368 49.148,132.1294 50.5814,132.1294 C52.1941,132.1294 53.6891,131.7728 55.0667,131.059 C56.4443,130.3455 57.6034,129.3803 58.5442,128.1637 L60.56,129.392 C59.3952,130.9363 57.9504,132.1586 56.2258,133.0594 C54.5012,133.9603 52.6196,134.4104 50.5814,134.4104 Z M71.6137,134.4456 C69.2173,134.4456 67.1899,133.5974 65.5325,131.9012 C63.8751,130.2052 63.0462,128.0702 63.0462,125.4966 L63.0462,108.2305 L65.3981,108.2305 L65.3981,125.4966 C65.3981,127.4151 65.9974,129.0062 67.1959,130.2696 C68.3938,131.533 69.8667,132.1645 71.6137,132.1645 C73.3162,132.1645 74.772,131.533 75.9813,130.2696 C77.1908,129.0062 77.7957,127.4151 77.7957,125.4966 L77.7957,108.2305 L80.1476,108.2305 L80.1476,125.4966 C80.1476,126.7835 79.9237,127.9707 79.4756,129.0586 C79.0277,130.1465 78.4174,131.0882 77.6447,131.8839 C76.8716,132.6793 75.9702,133.3052 74.9401,133.7613 C73.9097,134.2177 72.8008,134.4456 71.6137,134.4456 Z M95.838,131.7084 L95.838,133.9543 L84.3475,133.9543 L84.3475,108.2305 L86.7328,108.2305 L86.7328,131.7084 L95.838,131.7084 Z M100.8771,121.7415 L100.8771,133.9543 L98.5255,133.9543 L98.5255,108.2305 L106.4546,108.2305 C108.2687,108.2305 109.8085,108.8856 111.0742,110.1957 C112.3396,111.5059 112.9726,113.0967 112.9726,114.9684 C112.9726,116.8634 112.3396,118.4661 111.0742,119.7763 C109.8085,121.0864 108.2687,121.7415 106.4546,121.7415 L100.8771,121.7415 Z M106.2193,119.636 C107.4288,119.636 108.4592,119.1799 109.3102,118.2674 C110.1614,117.3549 110.5872,116.2554 110.5872,114.9684 C110.5872,113.705 110.1671,112.6287 109.3272,111.7398 C108.4873,110.8508 107.4626,110.4064 106.253,110.4064 L100.8771,110.4064 L100.8771,119.636 L106.2193,119.636 Z M114.0812,110.4764 L114.0812,108.2305 L130.1409,108.2305 L130.1409,110.4764 L123.287,110.4764 L123.287,133.9543 L120.9351,133.9543 L120.9351,110.4764 L114.0812,110.4764 Z M154.7011,131.7084 L154.7011,133.9543 L143.2106,133.9543 L143.2106,108.2305 L145.5959,108.2305 L145.5959,131.7084 L154.7011,131.7084 Z M156.1122,133.9543 L166.2588,108.2305 L168.5435,108.2305 L178.6901,133.9543 L176.271,133.9543 L173.1802,126.0933 L161.6222,126.0933 L158.5313,133.9543 L156.1122,133.9543 Z M167.4009,111.2837 L162.4286,123.9174 L172.34,123.9174 L167.4009,111.2837 Z M194.8839,114.5123 C194.8839,115.7757 194.6095,116.9161 194.0607,117.9338 C193.5119,118.9517 192.7673,119.753 191.8264,120.3378 C193.0808,120.8526 194.0834,121.7123 194.8337,122.9173 C195.5841,124.1221 195.9591,125.485 195.9591,127.0058 C195.9591,128.9475 195.3377,130.591 194.0944,131.9363 C192.8512,133.2817 191.1657,133.9543 189.038,133.9543 L180.5712,133.9543 L180.5712,108.2305 L188.3325,108.2305 C190.3706,108.2305 191.9722,108.8328 193.1369,110.0378 C194.3017,111.2426 194.8839,112.7342 194.8839,114.5123 Z M193.54,126.7951 C193.54,125.3914 193.1145,124.1864 192.2636,123.1804 C191.412,122.1744 190.2362,121.6715 188.7356,121.6715 L182.9231,121.6715 L182.9231,131.7784 L188.8027,131.7784 C190.2362,131.7784 191.3842,131.3048 192.2465,130.3572 C193.1088,129.4095 193.54,128.2224 193.54,126.7951 Z M192.4985,114.8981 C192.4985,113.5647 192.0955,112.4827 191.289,111.6522 C190.4825,110.8216 189.4187,110.4064 188.0972,110.4064 L182.9231,110.4064 L182.9231,119.5657 L188.1644,119.5657 C189.5083,119.5657 190.5667,119.1212 191.3395,118.2322 C192.1122,117.343 192.4985,116.2318 192.4985,114.8981 Z" id="Fill-10" fill="#000000"></path>
                    <path d="M51.8074,149.5786 C51.2725,149.5786 50.7719,149.4726 50.3048,149.2606 C49.8376,149.0485 49.43,148.7605 49.0816,148.3963 C48.733,148.0323 48.4572,147.6063 48.2542,147.1187 C48.0512,146.6309 47.9498,146.1076 47.9498,145.5492 C47.9498,144.9907 48.0512,144.4658 48.2542,143.9745 C48.4572,143.4833 48.733,143.0555 49.0816,142.6915 C49.43,142.3273 49.8376,142.0393 50.3048,141.8273 C50.7719,141.6152 51.2725,141.5092 51.8074,141.5092 C52.4231,141.5092 52.9917,141.647 53.5127,141.9228 C54.0338,142.1983 54.4706,142.5697 54.8224,143.0362 L54.2132,143.4073 C53.9292,143.0396 53.5788,142.7463 53.1627,142.5271 C52.7463,142.308 52.2944,142.1983 51.8074,142.1983 C51.3743,142.1983 50.9664,142.2868 50.584,142.4636 C50.2016,142.6402 49.8685,142.8806 49.5839,143.1845 C49.2999,143.4886 49.0748,143.8438 48.909,144.2503 C48.7432,144.6568 48.6601,145.0897 48.6601,145.5492 C48.6601,146.0086 48.7432,146.4418 48.909,146.8483 C49.0748,147.2548 49.2999,147.6082 49.5839,147.9087 C49.8685,148.2089 50.2016,148.4476 50.584,148.6245 C50.9664,148.8011 51.3743,148.8895 51.8074,148.8895 C52.2944,148.8895 52.7463,148.7815 53.1627,148.5661 C53.5788,148.3504 53.9292,148.0587 54.2132,147.6913 L54.8224,148.0624 C54.4706,148.5289 54.0338,148.8983 53.5127,149.1704 C52.9917,149.4425 52.4231,149.5786 51.8074,149.5786 Z M57.4002,145.825 L57.4002,149.4408 L56.6898,149.4408 L56.6898,141.6682 L57.4002,141.6682 L57.4002,145.1568 L61.4002,145.1568 L61.4002,141.6682 L62.1105,141.6682 L62.1105,149.4408 L61.4002,149.4408 L61.4002,145.825 L57.4002,145.825 Z M68.0996,141.5197 C68.6344,141.5197 69.135,141.6257 69.6019,141.8378 C70.0691,142.0501 70.4767,142.3381 70.8253,142.702 C71.174,143.0663 71.4495,143.4938 71.6525,143.9853 C71.8557,144.4765 71.9572,145.0015 71.9572,145.5599 C71.9572,146.1184 71.8557,146.6413 71.6525,147.1292 C71.4495,147.617 71.174,148.0428 70.8253,148.407 C70.4767,148.771 70.0691,149.059 69.6019,149.271 C69.135,149.4834 68.6344,149.5894 68.0996,149.5894 C67.5649,149.5894 67.0641,149.4834 66.5972,149.271 C66.13,149.059 65.7224,148.771 65.374,148.407 C65.0251,148.0428 64.7496,147.617 64.5466,147.1292 C64.3436,146.6413 64.2422,146.1184 64.2422,145.5599 C64.2422,145.0015 64.3436,144.4765 64.5466,143.9853 C64.7496,143.4938 65.0251,143.0663 65.374,142.702 C65.7224,142.3381 66.13,142.0501 66.5972,141.8378 C67.0641,141.6257 67.5649,141.5197 68.0996,141.5197 Z M64.9525,145.5599 C64.9525,146.0194 65.0356,146.4523 65.2014,146.8588 C65.3672,147.2652 65.592,147.6187 65.8763,147.9192 C66.1607,148.2197 66.494,148.4584 66.8764,148.6349 C67.2588,148.8115 67.6667,148.9 68.0996,148.9 C68.5327,148.9 68.9403,148.8115 69.3227,148.6349 C69.7051,148.4584 70.0387,148.2197 70.3228,147.9192 C70.6071,147.6187 70.8322,147.2652 70.998,146.8588 C71.1638,146.4523 71.2466,146.0194 71.2466,145.5599 C71.2466,145.1004 71.1638,144.6673 70.998,144.2608 C70.8322,143.8543 70.6071,143.4991 70.3228,143.1953 C70.0387,142.8911 69.7051,142.6507 69.3227,142.4741 C68.9403,142.2972 68.5327,142.2091 68.0996,142.2091 C67.6667,142.2091 67.2588,142.2972 66.8764,142.4741 C66.494,142.6507 66.1607,142.8911 65.8763,143.1953 C65.592,143.4991 65.3672,143.8543 65.2014,144.2608 C65.0356,144.6673 64.9525,145.1004 64.9525,145.5599 Z M77.4995,141.5197 C78.0341,141.5197 78.5347,141.6257 79.0019,141.8378 C79.4687,142.0501 79.8764,142.3381 80.2253,142.702 C80.5737,143.0663 80.8495,143.4938 81.0525,143.9853 C81.2557,144.4765 81.3572,145.0015 81.3572,145.5599 C81.3572,146.1184 81.2557,146.6413 81.0525,147.1292 C80.8495,147.617 80.5737,148.0428 80.2253,148.407 C79.8764,148.771 79.4687,149.059 79.0019,149.271 C78.5347,149.4834 78.0341,149.5894 77.4995,149.5894 C76.9646,149.5894 76.4637,149.4834 75.9969,149.271 C75.5297,149.059 75.1221,148.771 74.7737,148.407 C74.4251,148.0428 74.1493,147.617 73.9463,147.1292 C73.7433,146.6413 73.6419,146.1184 73.6419,145.5599 C73.6419,145.0015 73.7433,144.4765 73.9463,143.9853 C74.1493,143.4938 74.4251,143.0663 74.7737,142.702 C75.1221,142.3381 75.5297,142.0501 75.9969,141.8378 C76.4637,141.6257 76.9646,141.5197 77.4995,141.5197 Z M74.3522,145.5599 C74.3522,146.0194 74.4353,146.4523 74.6011,146.8588 C74.7669,147.2652 74.992,147.6187 75.276,147.9192 C75.5603,148.2197 75.8937,148.4584 76.2761,148.6349 C76.6585,148.8115 77.0664,148.9 77.4995,148.9 C77.9327,148.9 78.3403,148.8115 78.7227,148.6349 C79.1051,148.4584 79.4384,148.2197 79.7227,147.9192 C80.0068,147.6187 80.2321,147.2652 80.3977,146.8588 C80.5635,146.4523 80.6463,146.0194 80.6463,145.5599 C80.6463,145.1004 80.5635,144.6673 80.3977,144.2608 C80.2321,143.8543 80.0068,143.4991 79.7227,143.1953 C79.4384,142.8911 79.1051,142.6507 78.7227,142.4741 C78.3403,142.2972 77.9327,142.2091 77.4995,142.2091 C77.0664,142.2091 76.6585,142.2972 76.2761,142.4741 C75.8937,142.6507 75.5603,142.8911 75.276,143.1953 C74.992,143.4991 74.7669,143.8543 74.6011,144.2608 C74.4353,144.6673 74.3522,145.1004 74.3522,145.5599 Z M83.5591,148.0411 C83.708,148.3098 83.9347,148.5201 84.2395,148.6721 C84.5439,148.824 84.8824,148.9 85.2545,148.9 C85.7554,148.9 86.1582,148.7585 86.4627,148.4759 C86.7671,148.193 86.9193,147.8078 86.9193,147.32 C86.9193,146.9172 86.7957,146.6096 86.5488,146.3976 C86.3019,146.1855 85.9144,145.9874 85.3866,145.8037 C84.6488,145.5492 84.0938,145.2541 83.7216,144.9182 C83.3494,144.5825 83.1631,144.1355 83.1631,143.5768 C83.1631,142.9549 83.3749,142.4546 83.7975,142.0764 C84.2207,141.6983 84.7707,141.5092 85.4473,141.5092 C85.86,141.5092 86.2492,141.5923 86.6149,141.7584 C86.9803,141.9245 87.285,142.1878 87.5285,142.5484 L86.9295,142.8982 C86.6183,142.4316 86.1242,142.1983 85.4473,142.1983 C84.9804,142.1983 84.6031,142.3205 84.3154,142.5643 C84.0277,142.8081 83.884,143.1386 83.884,143.5558 C83.884,143.9445 84.026,144.2625 84.3103,144.51 C84.5946,144.7574 85.0346,144.9766 85.6299,145.1676 C86.3068,145.3938 86.811,145.6606 87.1427,145.9681 C87.4744,146.2757 87.6402,146.7193 87.6402,147.299 C87.6402,148.0057 87.4202,148.5624 86.9803,148.9689 C86.5403,149.3754 85.9584,149.5786 85.2344,149.5786 C84.2327,149.5786 83.4713,149.1863 82.9503,148.4017 L83.5591,148.0411 Z M90.5122,145.1251 L93.6289,145.1251 L93.6289,145.8142 L90.5122,145.8142 L90.5122,148.7622 L93.964,148.7622 L93.964,149.4408 L89.7917,149.4408 L89.7917,141.6682 L93.8319,141.6682 L93.8319,142.3469 L90.5122,142.3469 L90.5122,145.1251 Z M98.1763,142.3469 L98.1763,141.6682 L103.0289,141.6682 L103.0289,142.3469 L100.9579,142.3469 L100.9579,149.4408 L100.2473,149.4408 L100.2473,142.3469 L98.1763,142.3469 Z M105.495,145.825 L105.495,149.4408 L104.7844,149.4408 L104.7844,141.6682 L105.495,141.6682 L105.495,145.1568 L109.4947,145.1568 L109.4947,141.6682 L110.2054,141.6682 L110.2054,149.4408 L109.4947,149.4408 L109.4947,145.825 L105.495,145.825 Z M113.5143,145.1251 L116.6307,145.1251 L116.6307,145.8142 L113.5143,145.8142 L113.5143,148.7622 L116.966,148.7622 L116.966,149.4408 L112.7934,149.4408 L112.7934,141.6682 L116.8336,141.6682 L116.8336,142.3469 L113.5143,142.3469 L113.5143,145.1251 Z M125.4116,149.5786 C124.8767,149.5786 124.3761,149.4726 123.9089,149.2606 C123.4418,149.0485 123.0341,148.7605 122.6858,148.3963 C122.3371,148.0323 122.0613,147.6063 121.8583,147.1187 C121.6554,146.6309 121.5539,146.1076 121.5539,145.5492 C121.5539,144.9907 121.6554,144.4658 121.8583,143.9745 C122.0613,143.4833 122.3371,143.0555 122.6858,142.6915 C123.0341,142.3273 123.4418,142.0393 123.9089,141.8273 C124.3761,141.6152 124.8767,141.5092 125.4116,141.5092 C126.0272,141.5092 126.5959,141.647 127.1169,141.9228 C127.6379,142.1983 128.0747,142.5697 128.4265,143.0362 L127.8173,143.4073 C127.5333,143.0396 127.1829,142.7463 126.7668,142.5271 C126.3504,142.308 125.8985,142.1983 125.4116,142.1983 C124.9784,142.1983 124.5705,142.2868 124.1881,142.4636 C123.8057,142.6402 123.4724,142.8806 123.1881,143.1845 C122.904,143.4886 122.679,143.8438 122.5131,144.2503 C122.3473,144.6568 122.2642,145.0897 122.2642,145.5492 C122.2642,146.0086 122.3473,146.4418 122.5131,146.8483 C122.679,147.2548 122.904,147.6082 123.1881,147.9087 C123.4724,148.2089 123.8057,148.4476 124.1881,148.6245 C124.5705,148.8011 124.9784,148.8895 125.4116,148.8895 C125.8985,148.8895 126.3504,148.7815 126.7668,148.5661 C127.1829,148.3504 127.5333,148.0587 127.8173,147.6913 L128.4265,148.0624 C128.0747,148.5289 127.6379,148.8983 127.1169,149.1704 C126.5959,149.4425 126.0272,149.5786 125.4116,149.5786 Z M131.0043,145.825 L131.0043,149.4408 L130.2939,149.4408 L130.2939,141.6682 L131.0043,141.6682 L131.0043,145.1568 L135.0043,145.1568 L135.0043,141.6682 L135.7146,141.6682 L135.7146,149.4408 L135.0043,149.4408 L135.0043,145.825 L131.0043,145.825 Z M137.3996,149.4408 L140.4652,141.6682 L141.1555,141.6682 L144.2214,149.4408 L143.4904,149.4408 L142.5563,147.0657 L139.0643,147.0657 L138.1303,149.4408 L137.3996,149.4408 Z M140.8105,142.5906 L139.3078,146.4081 L142.3026,146.4081 L140.8105,142.5906 Z M145.9058,149.4408 L145.9058,141.6682 L146.8398,141.6682 L151.5096,148.5394 L151.5096,141.6682 L152.2304,141.6682 L152.2304,149.4408 L151.2961,149.4408 L146.6164,142.5697 L146.6164,149.4408 L145.9058,149.4408 Z M158.2192,145.6552 L158.2192,144.9873 L161.4371,144.9873 L161.4371,148.0519 C161.0513,148.5607 160.581,148.9442 160.026,149.2022 C159.471,149.4604 158.8757,149.5894 158.2393,149.5894 C157.6642,149.5894 157.138,149.4834 156.6607,149.271 C156.1836,149.059 155.7743,148.7727 155.4324,148.4121 C155.0906,148.0519 154.8267,147.6292 154.6404,147.1451 C154.4542,146.6609 154.3615,146.143 154.3615,145.5917 C154.3615,145.0191 154.463,144.4836 154.6659,143.9853 C154.8689,143.4867 155.1447,143.0555 155.4934,142.6915 C155.8418,142.3273 156.2514,142.041 156.7216,141.8326 C157.1919,141.624 157.6945,141.5197 158.2291,141.5197 C158.8451,141.5197 159.4171,141.6558 159.9449,141.9279 C160.4727,142.2003 160.9161,142.5697 161.2746,143.0362 L160.6655,143.4178 C160.3814,143.0433 160.026,142.7463 159.5996,142.5271 C159.1733,142.308 158.7167,142.1983 158.2291,142.1983 C157.796,142.1983 157.3866,142.2851 157.0008,142.4583 C156.615,142.6315 156.28,142.8701 155.9957,143.174 C155.7116,143.4779 155.4866,143.835 155.3207,144.2449 C155.1549,144.6551 155.0719,145.0967 155.0719,145.5704 C155.0719,146.0299 155.1515,146.4611 155.3105,146.8641 C155.4696,147.2669 155.6895,147.6204 155.9704,147.9246 C156.2514,148.2285 156.5861,148.4671 156.9753,148.6403 C157.3645,148.8135 157.7892,148.9 158.2495,148.9 C158.7167,148.9 159.175,148.8064 159.6252,148.6191 C160.075,148.4317 160.4455,148.1471 160.7366,147.7656 L160.7366,145.6552 L158.2192,145.6552 Z M164.5934,145.1251 L167.7101,145.1251 L167.7101,145.8142 L164.5934,145.8142 L164.5934,148.7622 L168.0452,148.7622 L168.0452,149.4408 L163.8729,149.4408 L163.8729,141.6682 L167.9131,141.6682 L167.9131,142.3469 L164.5934,142.3469 L164.5934,145.1251 Z" id="Fill-12" fill="#000000"></path>
                </g>
            </g>
        </g>
    </g>
</svg>