<?xml version="1.0" encoding="UTF-8"?>
<svg width="218px" height="217px" viewBox="0 0 218 217" version="1.1" xmlns="http://www.w3.org/2000/svg" xmlns:xlink="http://www.w3.org/1999/xlink">
    <!-- Generator: Sketch 64 (93537) - https://sketch.com -->
    <title>Group 3</title>
    <desc>Created with Sketch.</desc>
    <g id="Page-1" stroke="none" stroke-width="1" fill="none" fill-rule="evenodd">
        <g id="Artboard-1" transform="translate(-199.000000, -188.000000)">
            <g id="Group-3" transform="translate(200.280800, 188.561500)">
                <path d="M108,0 C167.6469,0 216,48.3534 216,108 C216,167.6466 167.6469,216 108,216 C48.3533,216 0,167.6466 0,108 C0,48.3534 48.3533,0 108,0 Z" id="Fill-1" fill="#000000"></path>
                <path d="M108,0 C167.6469,0 216,48.3534 216,108 C216,167.6466 167.6469,216 108,216 C48.3533,216 0,167.6466 0,108 C0,48.3534 48.3533,0 108,0 Z" id="Stroke-2" stroke="#151616" stroke-width="0.5669"></path>
                <polygon id="Fill-3" fill="#E5D16A" points="92.8267 66.4104 104.6993 66.4104 111.3052 66.4104 123.1783 66.4104 123.1783 73.0165 111.3052 73.0165 111.3052 78.3164 123.1783 78.3164 123.1783 84.9226 111.3052 84.9226 111.3052 90.4515 123.1783 90.4515 123.1783 97.0574 92.8267 97.0574 92.8267 90.4515 104.6993 90.4515 104.6993 84.9226 92.8267 84.9226 92.8267 78.3164 104.6993 78.3164 104.6993 73.0165 92.8267 73.0165"></polygon>
                <path d="M22.0566,129.3219 C22.5493,130.2109 23.2999,130.907 24.3076,131.4099 C25.3156,131.9131 26.4356,132.1645 27.6672,132.1645 C29.3249,132.1645 30.6578,131.6965 31.6655,130.7608 C32.6735,129.8248 33.1775,128.5498 33.1775,126.9354 C33.1775,125.602 32.7687,124.5841 31.9512,123.8822 C31.1337,123.1804 29.8513,122.5253 28.1043,121.917 C25.6629,121.0748 23.8263,120.098 22.5941,118.9868 C21.3624,117.8753 20.7464,116.3956 20.7464,114.5472 C20.7464,112.4884 21.4463,110.8332 22.8463,109.5814 C24.2461,108.3297 26.0659,107.7041 28.3059,107.7041 C29.6719,107.7041 30.96,107.9787 32.1695,108.5287 C33.379,109.0786 34.387,109.9499 35.1935,111.143 L33.2112,112.3013 C32.1806,110.7572 30.5455,109.9851 28.3059,109.9851 C26.7604,109.9851 25.5115,110.3887 24.5599,111.1958 C23.6077,112.0031 23.1318,113.0967 23.1318,114.4772 C23.1318,115.7638 23.6021,116.8166 24.5429,117.6355 C25.4834,118.4544 26.9396,119.1798 28.9105,119.8114 C31.1504,120.56 32.8192,121.4433 33.9168,122.4609 C35.0141,123.4789 35.5629,124.9469 35.5629,126.8654 C35.5629,129.2048 34.8349,131.0474 33.379,132.3927 C31.9232,133.738 29.9967,134.4104 27.6003,134.4104 C24.2855,134.4104 21.7655,133.1121 20.0409,130.515 L22.0566,129.3219 Z M50.5814,134.4104 C48.812,134.4104 47.1543,134.0595 45.6088,133.3576 C44.0634,132.6557 42.7138,131.7024 41.5604,130.4974 C40.4067,129.2927 39.4939,127.883 38.8221,126.2687 C38.1503,124.6544 37.8141,122.923 37.8141,121.0748 C37.8141,119.2266 38.1503,117.4892 38.8221,115.8633 C39.4939,114.2373 40.4067,112.8217 41.5604,111.617 C42.7138,110.412 44.0634,109.4587 45.6088,108.7568 C47.1543,108.055 48.812,107.7041 50.5814,107.7041 C52.6195,107.7041 54.5011,108.1601 56.2257,109.0726 C57.9503,109.9851 59.3951,111.2133 60.5599,112.7574 L58.5442,113.9859 C57.6034,112.7693 56.4443,111.7981 55.0666,111.073 C53.689,110.3476 52.194,109.9851 50.5814,109.9851 C49.1479,109.9851 47.7983,110.2776 46.5329,110.8624 C45.2673,111.4472 44.1643,112.2429 43.2235,113.2489 C42.2827,114.2549 41.5377,115.4304 40.9892,116.7758 C40.4404,118.1211 40.166,119.554 40.166,121.0748 C40.166,122.5956 40.4404,124.0285 40.9892,125.3738 C41.5377,126.7191 42.2827,127.889 43.2235,128.8831 C44.1643,129.8775 45.2673,130.6672 46.5329,131.252 C47.7983,131.8368 49.1479,132.1293 50.5814,132.1293 C52.194,132.1293 53.689,131.7727 55.0666,131.059 C56.4443,130.3455 57.6034,129.3803 58.5442,128.1637 L60.5599,129.3919 C59.3951,130.9362 57.9503,132.1585 56.2257,133.0594 C54.5011,133.9602 52.6195,134.4104 50.5814,134.4104 Z M71.6136,134.4455 C69.2172,134.4455 67.1898,133.5974 65.5324,131.9012 C63.875,130.2052 63.0462,128.0701 63.0462,125.4966 L63.0462,108.2304 L65.3981,108.2304 L65.3981,125.4966 C65.3981,127.415 65.9973,129.0061 67.1958,130.2695 C68.3937,131.5329 69.8666,132.1645 71.6136,132.1645 C73.3161,132.1645 74.772,131.5329 75.9812,130.2695 C77.1908,129.0061 77.7957,127.415 77.7957,125.4966 L77.7957,108.2304 L80.1476,108.2304 L80.1476,125.4966 C80.1476,126.7835 79.9236,127.9706 79.4755,129.0586 C79.0276,130.1465 78.4173,131.0882 77.6446,131.8839 C76.8716,132.6793 75.9702,133.3052 74.9401,133.7612 C73.9097,134.2176 72.8007,134.4455 71.6136,134.4455 Z M95.8379,131.7084 L95.8379,133.9543 L84.3474,133.9543 L84.3474,108.2304 L86.7327,108.2304 L86.7327,131.7084 L95.8379,131.7084 Z M100.8771,121.7415 L100.8771,133.9543 L98.5254,133.9543 L98.5254,108.2304 L106.4545,108.2304 C108.2687,108.2304 109.8085,108.8855 111.0741,110.1957 C112.3395,111.5059 112.9725,113.0967 112.9725,114.9684 C112.9725,116.8634 112.3395,118.4661 111.0741,119.7762 C109.8085,121.0864 108.2687,121.7415 106.4545,121.7415 L100.8771,121.7415 Z M106.2192,119.6359 C107.4288,119.6359 108.4592,119.1798 109.3101,118.2674 C110.1614,117.3549 110.5871,116.2553 110.5871,114.9684 C110.5871,113.705 110.167,112.6287 109.3271,111.7397 C108.4872,110.8508 107.4625,110.4063 106.253,110.4063 L100.8771,110.4063 L100.8771,119.6359 L106.2192,119.6359 Z M114.0811,110.4763 L114.0811,108.2304 L130.1408,108.2304 L130.1408,110.4763 L123.2869,110.4763 L123.2869,133.9543 L120.935,133.9543 L120.935,110.4763 L114.0811,110.4763 Z M154.701,131.7084 L154.701,133.9543 L143.2105,133.9543 L143.2105,108.2304 L145.5959,108.2304 L145.5959,131.7084 L154.701,131.7084 Z M156.1121,133.9543 L166.2587,108.2304 L168.5435,108.2304 L178.6901,133.9543 L176.271,133.9543 L173.1801,126.0932 L161.6221,126.0932 L158.5312,133.9543 L156.1121,133.9543 Z M167.4008,111.2836 L162.4286,123.9174 L172.3399,123.9174 L167.4008,111.2836 Z M194.8838,114.5123 C194.8838,115.7757 194.6094,116.9161 194.0606,117.9337 C193.5119,118.9516 192.7672,119.753 191.8264,120.3378 C193.0807,120.8526 194.0833,121.7123 194.8337,122.9173 C195.584,124.122 195.959,125.4849 195.959,127.0057 C195.959,128.9475 195.3377,130.591 194.0944,131.9363 C192.8511,133.2816 191.1656,133.9543 189.0379,133.9543 L180.5711,133.9543 L180.5711,108.2304 L188.3324,108.2304 C190.3705,108.2304 191.9721,108.8328 193.1368,110.0378 C194.3016,111.2425 194.8838,112.7341 194.8838,114.5123 Z M193.5399,126.7951 C193.5399,125.3914 193.1144,124.1864 192.2635,123.1804 C191.412,122.1744 190.2361,121.6715 188.7355,121.6715 L182.923,121.6715 L182.923,131.7784 L188.8027,131.7784 C190.2361,131.7784 191.3842,131.3047 192.2465,130.3571 C193.1088,129.4095 193.5399,128.2224 193.5399,126.7951 Z M192.4985,114.8981 C192.4985,113.5647 192.0954,112.4827 191.2889,111.6521 C190.4825,110.8216 189.4186,110.4063 188.0971,110.4063 L182.923,110.4063 L182.923,119.5656 L188.1643,119.5656 C189.5082,119.5656 190.5667,119.1212 191.3394,118.2322 C192.1121,117.343 192.4985,116.2318 192.4985,114.8981 Z" id="Fill-4" fill="#FEFEFE"></path>
                <path d="M22.0566,129.3219 C22.5493,130.2109 23.2999,130.907 24.3076,131.4099 C25.3156,131.9131 26.4356,132.1645 27.6672,132.1645 C29.3249,132.1645 30.6578,131.6965 31.6655,130.7608 C32.6735,129.8248 33.1775,128.5498 33.1775,126.9354 C33.1775,125.602 32.7687,124.5841 31.9512,123.8822 C31.1337,123.1804 29.8513,122.5253 28.1043,121.917 C25.6629,121.0748 23.8263,120.098 22.5941,118.9868 C21.3624,117.8753 20.7464,116.3956 20.7464,114.5472 C20.7464,112.4884 21.4463,110.8332 22.8463,109.5814 C24.2461,108.3297 26.0659,107.7041 28.3059,107.7041 C29.6719,107.7041 30.96,107.9787 32.1695,108.5287 C33.379,109.0786 34.387,109.9499 35.1935,111.143 L33.2112,112.3013 C32.1806,110.7572 30.5455,109.9851 28.3059,109.9851 C26.7604,109.9851 25.5115,110.3887 24.5599,111.1958 C23.6077,112.0031 23.1318,113.0967 23.1318,114.4772 C23.1318,115.7638 23.6021,116.8166 24.5429,117.6355 C25.4834,118.4544 26.9396,119.1798 28.9105,119.8114 C31.1504,120.56 32.8192,121.4433 33.9168,122.4609 C35.0141,123.4789 35.5629,124.9469 35.5629,126.8654 C35.5629,129.2048 34.8349,131.0474 33.379,132.3927 C31.9232,133.738 29.9967,134.4104 27.6003,134.4104 C24.2855,134.4104 21.7655,133.1121 20.0409,130.515 L22.0566,129.3219 Z M50.5814,134.4104 C48.812,134.4104 47.1543,134.0595 45.6088,133.3576 C44.0634,132.6557 42.7138,131.7024 41.5604,130.4974 C40.4067,129.2927 39.4939,127.883 38.8221,126.2687 C38.1503,124.6544 37.8141,122.923 37.8141,121.0748 C37.8141,119.2266 38.1503,117.4892 38.8221,115.8633 C39.4939,114.2373 40.4067,112.8217 41.5604,111.617 C42.7138,110.412 44.0634,109.4587 45.6088,108.7568 C47.1543,108.055 48.812,107.7041 50.5814,107.7041 C52.6195,107.7041 54.5011,108.1601 56.2257,109.0726 C57.9503,109.9851 59.3951,111.2133 60.5599,112.7574 L58.5442,113.9859 C57.6034,112.7693 56.4443,111.7981 55.0666,111.073 C53.689,110.3476 52.194,109.9851 50.5814,109.9851 C49.1479,109.9851 47.7983,110.2776 46.5329,110.8624 C45.2673,111.4472 44.1643,112.2429 43.2235,113.2489 C42.2827,114.2549 41.5377,115.4304 40.9892,116.7758 C40.4404,118.1211 40.166,119.554 40.166,121.0748 C40.166,122.5956 40.4404,124.0285 40.9892,125.3738 C41.5377,126.7191 42.2827,127.889 43.2235,128.8831 C44.1643,129.8775 45.2673,130.6672 46.5329,131.252 C47.7983,131.8368 49.1479,132.1293 50.5814,132.1293 C52.194,132.1293 53.689,131.7727 55.0666,131.059 C56.4443,130.3455 57.6034,129.3803 58.5442,128.1637 L60.5599,129.3919 C59.3951,130.9362 57.9503,132.1585 56.2257,133.0594 C54.5011,133.9602 52.6195,134.4104 50.5814,134.4104 Z M71.6136,134.4455 C69.2172,134.4455 67.1898,133.5974 65.5324,131.9012 C63.875,130.2052 63.0462,128.0701 63.0462,125.4966 L63.0462,108.2304 L65.3981,108.2304 L65.3981,125.4966 C65.3981,127.415 65.9973,129.0061 67.1958,130.2695 C68.3937,131.5329 69.8666,132.1645 71.6136,132.1645 C73.3161,132.1645 74.772,131.5329 75.9812,130.2695 C77.1908,129.0061 77.7957,127.415 77.7957,125.4966 L77.7957,108.2304 L80.1476,108.2304 L80.1476,125.4966 C80.1476,126.7835 79.9236,127.9706 79.4755,129.0586 C79.0276,130.1465 78.4173,131.0882 77.6446,131.8839 C76.8716,132.6793 75.9702,133.3052 74.9401,133.7612 C73.9097,134.2176 72.8007,134.4455 71.6136,134.4455 Z M95.8379,131.7084 L95.8379,133.9543 L84.3474,133.9543 L84.3474,108.2304 L86.7327,108.2304 L86.7327,131.7084 L95.8379,131.7084 Z M100.8771,121.7415 L100.8771,133.9543 L98.5254,133.9543 L98.5254,108.2304 L106.4545,108.2304 C108.2687,108.2304 109.8085,108.8855 111.0741,110.1957 C112.3395,111.5059 112.9725,113.0967 112.9725,114.9684 C112.9725,116.8634 112.3395,118.4661 111.0741,119.7762 C109.8085,121.0864 108.2687,121.7415 106.4545,121.7415 L100.8771,121.7415 Z M106.2192,119.6359 C107.4288,119.6359 108.4592,119.1798 109.3101,118.2674 C110.1614,117.3549 110.5871,116.2553 110.5871,114.9684 C110.5871,113.705 110.167,112.6287 109.3271,111.7397 C108.4872,110.8508 107.4625,110.4063 106.253,110.4063 L100.8771,110.4063 L100.8771,119.6359 L106.2192,119.6359 Z M114.0811,110.4763 L114.0811,108.2304 L130.1408,108.2304 L130.1408,110.4763 L123.2869,110.4763 L123.2869,133.9543 L120.935,133.9543 L120.935,110.4763 L114.0811,110.4763 Z M154.701,131.7084 L154.701,133.9543 L143.2105,133.9543 L143.2105,108.2304 L145.5959,108.2304 L145.5959,131.7084 L154.701,131.7084 Z M156.1121,133.9543 L166.2587,108.2304 L168.5435,108.2304 L178.6901,133.9543 L176.271,133.9543 L173.1801,126.0932 L161.6221,126.0932 L158.5312,133.9543 L156.1121,133.9543 Z M167.4008,111.2836 L162.4286,123.9174 L172.3399,123.9174 L167.4008,111.2836 Z M194.8838,114.5123 C194.8838,115.7757 194.6094,116.9161 194.0606,117.9337 C193.5119,118.9516 192.7672,119.753 191.8264,120.3378 C193.0807,120.8526 194.0833,121.7123 194.8337,122.9173 C195.584,124.122 195.959,125.4849 195.959,127.0057 C195.959,128.9475 195.3377,130.591 194.0944,131.9363 C192.8511,133.2816 191.1656,133.9543 189.0379,133.9543 L180.5711,133.9543 L180.5711,108.2304 L188.3324,108.2304 C190.3705,108.2304 191.9721,108.8328 193.1368,110.0378 C194.3016,111.2425 194.8838,112.7341 194.8838,114.5123 Z M193.5399,126.7951 C193.5399,125.3914 193.1144,124.1864 192.2635,123.1804 C191.412,122.1744 190.2361,121.6715 188.7355,121.6715 L182.923,121.6715 L182.923,131.7784 L188.8027,131.7784 C190.2361,131.7784 191.3842,131.3047 192.2465,130.3571 C193.1088,129.4095 193.5399,128.2224 193.5399,126.7951 Z M192.4985,114.8981 C192.4985,113.5647 192.0954,112.4827 191.2889,111.6521 C190.4825,110.8216 189.4186,110.4063 188.0971,110.4063 L182.923,110.4063 L182.923,119.5656 L188.1643,119.5656 C189.5082,119.5656 190.5667,119.1212 191.3394,118.2322 C192.1121,117.343 192.4985,116.2318 192.4985,114.8981 Z" id="Stroke-5" stroke="#FEFEFE" stroke-width="0.216"></path>
                <path d="M51.8074,149.5786 C51.2725,149.5786 50.7719,149.4726 50.3047,149.2605 C49.8376,149.0485 49.4299,148.7605 49.0816,148.3962 C48.7329,148.0323 48.4571,147.6062 48.2541,147.1187 C48.0512,146.6308 47.9497,146.1075 47.9497,145.5491 C47.9497,144.9907 48.0512,144.4657 48.2541,143.9745 C48.4571,143.4832 48.7329,143.0555 49.0816,142.6915 C49.4299,142.3273 49.8376,142.0393 50.3047,141.8272 C50.7719,141.6152 51.2725,141.5092 51.8074,141.5092 C52.423,141.5092 52.9917,141.647 53.5127,141.9228 C54.0337,142.1983 54.4705,142.5696 54.8223,143.0362 L54.2131,143.4073 C53.9291,143.0396 53.5787,142.7462 53.1626,142.5271 C52.7462,142.308 52.2943,142.1983 51.8074,142.1983 C51.3742,142.1983 50.9663,142.2867 50.5839,142.4636 C50.2015,142.6402 49.8685,142.8806 49.5839,143.1845 C49.2998,143.4886 49.0748,143.8438 48.9089,144.2503 C48.7431,144.6568 48.6601,145.0896 48.6601,145.5491 C48.6601,146.0086 48.7431,146.4418 48.9089,146.8482 C49.0748,147.2547 49.2998,147.6082 49.5839,147.9087 C49.8685,148.2089 50.2015,148.4475 50.5839,148.6244 C50.9663,148.801 51.3742,148.8895 51.8074,148.8895 C52.2943,148.8895 52.7462,148.7815 53.1626,148.566 C53.5787,148.3503 53.9291,148.0586 54.2131,147.6913 L54.8223,148.0623 C54.4705,148.5289 54.0337,148.8983 53.5127,149.1704 C52.9917,149.4425 52.423,149.5786 51.8074,149.5786 Z M57.4001,145.8249 L57.4001,149.4408 L56.6898,149.4408 L56.6898,141.6682 L57.4001,141.6682 L57.4001,145.1568 L61.4001,145.1568 L61.4001,141.6682 L62.1104,141.6682 L62.1104,149.4408 L61.4001,149.4408 L61.4001,145.8249 L57.4001,145.8249 Z M68.0995,141.5197 C68.6344,141.5197 69.135,141.6257 69.6018,141.8377 C70.069,142.05 70.4766,142.338 70.8253,142.702 C71.1739,143.0663 71.4495,143.4937 71.6524,143.9852 C71.8557,144.4765 71.9572,145.0015 71.9572,145.5599 C71.9572,146.1183 71.8557,146.6413 71.6524,147.1292 C71.4495,147.617 71.1739,148.0428 70.8253,148.407 C70.4766,148.771 70.069,149.059 69.6018,149.271 C69.135,149.4833 68.6344,149.5893 68.0995,149.5893 C67.5649,149.5893 67.064,149.4833 66.5971,149.271 C66.13,149.059 65.7223,148.771 65.374,148.407 C65.025,148.0428 64.7495,147.617 64.5465,147.1292 C64.3436,146.6413 64.2421,146.1183 64.2421,145.5599 C64.2421,145.0015 64.3436,144.4765 64.5465,143.9852 C64.7495,143.4937 65.025,143.0663 65.374,142.702 C65.7223,142.338 66.13,142.05 66.5971,141.8377 C67.064,141.6257 67.5649,141.5197 68.0995,141.5197 Z M64.9525,145.5599 C64.9525,146.0194 65.0355,146.4522 65.2013,146.8587 C65.3672,147.2652 65.592,147.6187 65.8763,147.9192 C66.1606,148.2196 66.4939,148.4583 66.8763,148.6349 C67.2587,148.8115 67.6666,148.9 68.0995,148.9 C68.5326,148.9 68.9402,148.8115 69.3226,148.6349 C69.705,148.4583 70.0387,148.2196 70.3227,147.9192 C70.607,147.6187 70.8321,147.2652 70.9979,146.8587 C71.1637,146.4522 71.2465,146.0194 71.2465,145.5599 C71.2465,145.1004 71.1637,144.6673 70.9979,144.2608 C70.8321,143.8543 70.607,143.4991 70.3227,143.1952 C70.0387,142.8911 69.705,142.6507 69.3226,142.4741 C68.9402,142.2972 68.5326,142.2091 68.0995,142.2091 C67.6666,142.2091 67.2587,142.2972 66.8763,142.4741 C66.4939,142.6507 66.1606,142.8911 65.8763,143.1952 C65.592,143.4991 65.3672,143.8543 65.2013,144.2608 C65.0355,144.6673 64.9525,145.1004 64.9525,145.5599 Z M77.4995,141.5197 C78.0341,141.5197 78.5347,141.6257 79.0018,141.8377 C79.4687,142.05 79.8763,142.338 80.2252,142.702 C80.5736,143.0663 80.8494,143.4937 81.0524,143.9852 C81.2556,144.4765 81.3571,145.0015 81.3571,145.5599 C81.3571,146.1183 81.2556,146.6413 81.0524,147.1292 C80.8494,147.617 80.5736,148.0428 80.2252,148.407 C79.8763,148.771 79.4687,149.059 79.0018,149.271 C78.5347,149.4833 78.0341,149.5893 77.4995,149.5893 C76.9646,149.5893 76.4637,149.4833 75.9968,149.271 C75.5297,149.059 75.122,148.771 74.7737,148.407 C74.425,148.0428 74.1492,147.617 73.9462,147.1292 C73.7433,146.6413 73.6418,146.1183 73.6418,145.5599 C73.6418,145.0015 73.7433,144.4765 73.9462,143.9852 C74.1492,143.4937 74.425,143.0663 74.7737,142.702 C75.122,142.338 75.5297,142.05 75.9968,141.8377 C76.4637,141.6257 76.9646,141.5197 77.4995,141.5197 Z M74.3521,145.5599 C74.3521,146.0194 74.4352,146.4522 74.601,146.8587 C74.7669,147.2652 74.9919,147.6187 75.276,147.9192 C75.5603,148.2196 75.8936,148.4583 76.276,148.6349 C76.6584,148.8115 77.0663,148.9 77.4995,148.9 C77.9326,148.9 78.3402,148.8115 78.7226,148.6349 C79.105,148.4583 79.4383,148.2196 79.7227,147.9192 C80.0067,147.6187 80.2321,147.2652 80.3976,146.8587 C80.5634,146.4522 80.6462,146.0194 80.6462,145.5599 C80.6462,145.1004 80.5634,144.6673 80.3976,144.2608 C80.2321,143.8543 80.0067,143.4991 79.7227,143.1952 C79.4383,142.8911 79.105,142.6507 78.7226,142.4741 C78.3402,142.2972 77.9326,142.2091 77.4995,142.2091 C77.0663,142.2091 76.6584,142.2972 76.276,142.4741 C75.8936,142.6507 75.5603,142.8911 75.276,143.1952 C74.9919,143.4991 74.7669,143.8543 74.601,144.2608 C74.4352,144.6673 74.3521,145.1004 74.3521,145.5599 Z M83.5591,148.0411 C83.7079,148.3098 83.9347,148.5201 84.2394,148.6721 C84.5438,148.824 84.8823,148.9 85.2545,148.9 C85.7554,148.9 86.1582,148.7585 86.4626,148.4759 C86.767,148.193 86.9193,147.8078 86.9193,147.3199 C86.9193,146.9171 86.7957,146.6096 86.5488,146.3975 C86.3019,146.1855 85.9144,145.9874 85.3866,145.8037 C84.6487,145.5491 84.0937,145.254 83.7215,144.9181 C83.3493,144.5825 83.1631,144.1355 83.1631,143.5768 C83.1631,142.9549 83.3748,142.4545 83.7975,142.0764 C84.2207,141.6983 84.7706,141.5092 85.4472,141.5092 C85.86,141.5092 86.2492,141.5922 86.6148,141.7584 C86.9802,141.9245 87.2849,142.1878 87.5284,142.5484 L86.9295,142.8982 C86.6182,142.4316 86.1241,142.1983 85.4472,142.1983 C84.9804,142.1983 84.6031,142.3205 84.3154,142.5642 C84.0276,142.808 83.8839,143.1385 83.8839,143.5558 C83.8839,143.9444 84.0259,144.2625 84.3103,144.5099 C84.5946,144.7574 85.0345,144.9765 85.6298,145.1676 C86.3067,145.3938 86.811,145.6605 87.1426,145.9681 C87.4743,146.2756 87.6401,146.7193 87.6401,147.299 C87.6401,148.0056 87.4201,148.5624 86.9802,148.9688 C86.5403,149.3753 85.9583,149.5786 85.2343,149.5786 C84.2326,149.5786 83.4712,149.1863 82.9502,148.4016 L83.5591,148.0411 Z M90.5122,145.1251 L93.6289,145.1251 L93.6289,145.8142 L90.5122,145.8142 L90.5122,148.7622 L93.9639,148.7622 L93.9639,149.4408 L89.7916,149.4408 L89.7916,141.6682 L93.8318,141.6682 L93.8318,142.3468 L90.5122,142.3468 L90.5122,145.1251 Z M98.1762,142.3468 L98.1762,141.6682 L103.0288,141.6682 L103.0288,142.3468 L100.9578,142.3468 L100.9578,149.4408 L100.2472,149.4408 L100.2472,142.3468 L98.1762,142.3468 Z M105.495,145.8249 L105.495,149.4408 L104.7843,149.4408 L104.7843,141.6682 L105.495,141.6682 L105.495,145.1568 L109.4947,145.1568 L109.4947,141.6682 L110.2053,141.6682 L110.2053,149.4408 L109.4947,149.4408 L109.4947,145.8249 L105.495,145.8249 Z M113.5142,145.1251 L116.6306,145.1251 L116.6306,145.8142 L113.5142,145.8142 L113.5142,148.7622 L116.9659,148.7622 L116.9659,149.4408 L112.7933,149.4408 L112.7933,141.6682 L116.8336,141.6682 L116.8336,142.3468 L113.5142,142.3468 L113.5142,145.1251 Z M125.4115,149.5786 C124.8766,149.5786 124.376,149.4726 123.9088,149.2605 C123.4417,149.0485 123.0341,148.7605 122.6857,148.3962 C122.337,148.0323 122.0612,147.6062 121.8583,147.1187 C121.6553,146.6308 121.5538,146.1075 121.5538,145.5491 C121.5538,144.9907 121.6553,144.4657 121.8583,143.9745 C122.0612,143.4832 122.337,143.0555 122.6857,142.6915 C123.0341,142.3273 123.4417,142.0393 123.9088,141.8272 C124.376,141.6152 124.8766,141.5092 125.4115,141.5092 C126.0272,141.5092 126.5958,141.647 127.1168,141.9228 C127.6378,142.1983 128.0746,142.5696 128.4264,143.0362 L127.8172,143.4073 C127.5332,143.0396 127.1829,142.7462 126.7667,142.5271 C126.3503,142.308 125.8985,142.1983 125.4115,142.1983 C124.9783,142.1983 124.5704,142.2867 124.1881,142.4636 C123.8057,142.6402 123.4723,142.8806 123.188,143.1845 C122.904,143.4886 122.6789,143.8438 122.5131,144.2503 C122.3472,144.6568 122.2642,145.0896 122.2642,145.5491 C122.2642,146.0086 122.3472,146.4418 122.5131,146.8482 C122.6789,147.2547 122.904,147.6082 123.188,147.9087 C123.4723,148.2089 123.8057,148.4475 124.1881,148.6244 C124.5704,148.801 124.9783,148.8895 125.4115,148.8895 C125.8985,148.8895 126.3503,148.7815 126.7667,148.566 C127.1829,148.3503 127.5332,148.0586 127.8172,147.6913 L128.4264,148.0623 C128.0746,148.5289 127.6378,148.8983 127.1168,149.1704 C126.5958,149.4425 126.0272,149.5786 125.4115,149.5786 Z M131.0042,145.8249 L131.0042,149.4408 L130.2939,149.4408 L130.2939,141.6682 L131.0042,141.6682 L131.0042,145.1568 L135.0042,145.1568 L135.0042,141.6682 L135.7146,141.6682 L135.7146,149.4408 L135.0042,149.4408 L135.0042,145.8249 L131.0042,145.8249 Z M137.3995,149.4408 L140.4652,141.6682 L141.1554,141.6682 L144.2213,149.4408 L143.4903,149.4408 L142.5563,147.0657 L139.0643,147.0657 L138.1303,149.4408 L137.3995,149.4408 Z M140.8104,142.5906 L139.3078,146.408 L142.3026,146.408 L140.8104,142.5906 Z M145.9057,149.4408 L145.9057,141.6682 L146.8397,141.6682 L151.5095,148.5394 L151.5095,141.6682 L152.2303,141.6682 L152.2303,149.4408 L151.2961,149.4408 L146.6163,142.5696 L146.6163,149.4408 L145.9057,149.4408 Z M158.2191,145.6551 L158.2191,144.9873 L161.437,144.9873 L161.437,148.0518 C161.0512,148.5607 160.5809,148.9442 160.0259,149.2021 C159.4709,149.4604 158.8756,149.5893 158.2392,149.5893 C157.6641,149.5893 157.138,149.4833 156.6606,149.271 C156.1835,149.059 155.7742,148.7727 155.4324,148.4121 C155.0905,148.0518 154.8266,147.6292 154.6404,147.145 C154.4541,146.6609 154.3614,146.143 154.3614,145.5916 C154.3614,145.019 154.4629,144.4836 154.6659,143.9852 C154.8688,143.4866 155.1446,143.0555 155.4933,142.6915 C155.8417,142.3273 156.2513,142.041 156.7216,141.8326 C157.1918,141.624 157.6944,141.5197 158.229,141.5197 C158.845,141.5197 159.417,141.6557 159.9448,141.9279 C160.4726,142.2003 160.916,142.5696 161.2746,143.0362 L160.6654,143.4178 C160.3814,143.0433 160.0259,142.7462 159.5996,142.5271 C159.1732,142.308 158.7166,142.1983 158.229,142.1983 C157.7959,142.1983 157.3866,142.285 157.0008,142.4582 C156.615,142.6314 156.2799,142.8701 155.9956,143.174 C155.7116,143.4778 155.4865,143.835 155.3207,144.2449 C155.1549,144.6551 155.0718,145.0967 155.0718,145.5704 C155.0718,146.0299 155.1515,146.461 155.3105,146.8641 C155.4695,147.2669 155.6895,147.6204 155.9704,147.9246 C156.2513,148.2284 156.5861,148.4671 156.9753,148.6403 C157.3645,148.8135 157.7891,148.9 158.2494,148.9 C158.7166,148.9 159.1749,148.8064 159.6251,148.619 C160.0749,148.4317 160.4454,148.1471 160.7366,147.7655 L160.7366,145.6551 L158.2191,145.6551 Z M164.5934,145.1251 L167.7101,145.1251 L167.7101,145.8142 L164.5934,145.8142 L164.5934,148.7622 L168.0451,148.7622 L168.0451,149.4408 L163.8728,149.4408 L163.8728,141.6682 L167.913,141.6682 L167.913,142.3468 L164.5934,142.3468 L164.5934,145.1251 Z" id="Fill-6" fill="#FEFEFE"></path>
            </g>
        </g>
    </g>
</svg>